<svg width="36" height="31" viewBox="0 0 36 31" fill="none" xmlns="http://www.w3.org/2000/svg">
<path d="M34.7512 29.5218C33.8363 27.9311 31.3571 25.9519 31.1607 25.5839C30.9631 25.2172 31.2919 23.6561 30.8532 23.4802C30.4853 23.3352 30.0347 23.3233 29.8968 23.3233C29.8699 23.3233 29.8549 23.3237 29.8549 23.3237C29.8549 23.3237 29.6842 21.7132 29.728 21.0287C29.7719 20.3454 30.1284 17.6615 30.5461 17.0295C30.9631 16.3976 31.8618 15.255 31.9736 14.7531C32.0819 14.2531 32.8961 12.2439 32.8826 11.7463C32.868 11.2515 33.5023 7.31988 31.7567 4.88457C30.0098 2.44729 28.7846 0.805566 26.1691 0.570414C25.6455 0.522593 25.0997 0.502832 24.559 0.501251C22.4849 0.515479 20.5345 0.792129 20.1986 0.856154C20.1986 0.856154 16.7682 1.56043 15.9461 2.14376C15.1233 2.72631 13.3444 4.12774 12.869 5.44578C12.473 6.5425 12.4196 7.2361 12.3635 7.54911H12.3809C12.4038 7.65028 12.4307 7.75304 12.4465 7.88109C12.5982 8.92406 11.6541 9.87732 12.2449 10.9314C12.3169 11.0539 12.3323 11.1479 12.3323 11.1479C12.4445 11.4171 12.5745 11.7285 12.5639 12.0166C12.5568 12.3241 12.6002 12.5502 12.4943 12.709C12.3892 12.862 11.4818 13.9848 11.417 14.0828C11.3537 14.1804 10.5696 14.8701 10.4242 15.0862C10.2787 15.3004 10.0653 15.781 10.1475 16.0352C10.2305 16.2932 10.5206 16.6592 11.364 17.0916C11.4588 17.152 11.4296 17.2342 11.4241 17.2662C11.3743 17.3971 11.3118 17.7207 11.2284 17.8788C11.1288 18.0662 11.1055 18.3108 11.2225 18.4716C11.3399 18.6388 11.5007 18.6894 11.4146 18.7756C11.3304 18.8597 11.1198 19.1704 11.0913 19.3799C11.0644 19.5885 11.1079 19.732 11.1976 19.8513C11.2893 19.9679 11.5264 20.3299 11.5043 20.4865C11.4833 20.6434 11.6011 20.8892 11.4679 21.0868C11.3363 21.2808 10.8079 22.142 11.0644 22.606C11.417 23.2474 11.6489 23.545 12.6117 23.8015C13.4934 24.0331 15.4343 24.2955 16.0449 24.2955C16.1006 24.2955 16.1453 24.2928 16.1773 24.2884C16.2188 24.2821 16.256 24.2793 16.2903 24.2793C16.5769 24.2793 16.6144 24.4888 16.5943 24.7947C16.5848 24.9259 16.5619 25.0559 16.5389 25.1832C16.3967 25.2622 16.2168 25.3622 16.0576 25.4333C15.1541 25.8404 14.2672 25.8855 13.4061 26.483C12.0596 27.4138 10.553 28.6729 9.33852 29.7689C9.28556 29.8155 9.23458 29.8677 9.18676 29.9198C9.02472 30.0953 8.88837 30.2992 8.74926 30.5H26.656H35.1745C35.0535 30.1558 34.9207 29.8183 34.7512 29.5218ZM26.2841 30.0008C26.2616 29.9744 26.2418 29.9447 26.2181 29.9198C26.1691 29.8677 26.1193 29.8155 26.0652 29.7689C24.8507 28.6729 23.3461 27.4138 21.9984 26.483C21.1365 25.8851 20.2496 25.8404 19.3477 25.4333C19.1877 25.3622 19.0067 25.2622 18.8663 25.1832C18.8434 25.0559 18.8193 24.9259 18.8114 24.7947C18.7885 24.4524 18.8383 24.2311 19.2264 24.2888C19.605 24.3437 21.8289 24.0548 22.7916 23.8019C23.7555 23.5454 23.9863 23.2478 24.3413 22.6064C24.597 22.1424 24.069 21.2812 23.9377 21.0872C23.8049 20.8896 23.9223 20.6441 23.8994 20.4868C23.8785 20.3303 24.1156 19.9683 24.2061 19.8517C24.2974 19.732 24.3413 19.5889 24.3132 19.3802C24.2863 19.1708 24.0761 18.8601 23.9911 18.776C23.9037 18.6898 24.067 18.6392 24.1836 18.472C24.2998 18.3112 24.2753 18.0666 24.1772 17.8792C24.0942 17.7215 24.033 17.3975 23.9796 17.2666C23.9757 17.2346 23.9464 17.1524 24.0421 17.092C24.8831 16.6596 25.1744 16.2936 25.2574 16.0355C25.3388 15.781 25.1285 15.3008 24.9819 15.0866C24.8372 14.8705 24.0535 14.1808 23.9867 14.0832C23.9223 13.9852 23.0169 12.8624 22.9118 12.7094C22.8047 12.5505 22.8497 12.3245 22.8402 12.017C22.8307 11.7289 22.9616 11.4171 23.0742 11.1483C23.0742 11.1483 23.0888 11.0543 23.1615 10.9317C23.7524 9.87771 22.8058 8.92446 22.9576 7.88148C22.975 7.75344 23.0015 7.65068 23.0264 7.5495H23.0418C22.9861 7.23649 22.9319 6.54289 22.5379 5.44617C22.0636 4.12774 20.2844 2.72631 19.4608 2.14416C19.2616 2.00267 18.9067 1.85447 18.4865 1.70982C19.0529 1.56596 19.6149 1.43791 20.0607 1.34661C20.3441 1.29247 22.364 0.999222 24.4906 0.999617C25.0803 0.999617 25.63 1.02254 26.1249 1.06759C28.4511 1.27666 29.5711 2.69192 31.3512 5.17545C32.7415 7.11477 32.5009 10.1552 32.41 11.2997C32.3922 11.5262 32.3815 11.6637 32.3843 11.7593C32.3843 11.9972 32.0301 13.011 31.8397 13.556C31.6496 14.0986 31.531 14.442 31.4871 14.6452C31.4263 14.9155 30.8769 15.6901 30.5485 16.1529C30.3904 16.375 30.243 16.5837 30.1304 16.754C29.5814 17.5844 29.2546 20.6177 29.2301 20.9967C29.1842 21.7148 29.3514 23.3087 29.3589 23.3763L29.4083 23.8347L29.8691 23.8229L29.8968 23.8221C30.0892 23.8221 30.3529 23.8466 30.5663 23.9098C30.6058 24.09 30.5987 24.4876 30.5947 24.7141C30.5852 25.2365 30.586 25.5705 30.7204 25.8195C30.8204 26.0068 31.0579 26.2352 31.6341 26.7798C32.4748 27.5742 33.7454 28.7749 34.3176 29.77C34.3599 29.8443 34.3999 29.9222 34.4378 30.0016H26.2841V30.0008ZM8.82039 29.5811C8.65006 29.7653 8.51252 29.9641 8.37973 30.1562L8.33863 30.2154L8.14142 30.5H0C0.121726 30.1558 0.253728 29.8179 0.424065 29.5214C1.3382 27.9307 3.81698 25.9515 4.0138 25.5835C4.20903 25.2168 3.8818 23.6557 4.32048 23.4798C4.76154 23.3063 5.31959 23.3233 5.31959 23.3233C5.31959 23.3233 5.48913 21.7128 5.44566 21.0283C5.40377 20.345 5.04412 17.6611 4.62717 17.0291C4.20903 16.3972 3.31071 15.2546 3.20084 14.7527C3.09176 14.2527 2.27841 12.2435 2.29106 11.7459C2.30647 11.2511 1.67215 7.31949 3.41821 4.88418C5.16506 2.44689 6.39022 0.805171 9.00536 0.570019C11.6225 0.331309 14.7719 0.772763 15.2078 0.856154C15.2078 0.856154 15.937 1.00634 16.8033 1.22489C16.3188 1.39009 15.8995 1.56438 15.6576 1.73669C14.8581 2.30264 12.9389 3.78153 12.3999 5.27663C12.0544 6.23265 11.9544 6.91519 11.9003 7.28194C11.89 7.35229 11.8813 7.41197 11.8726 7.46177L11.7675 8.04906H11.9623C11.9782 8.35377 11.8801 8.67349 11.7782 9.01022C11.5928 9.61885 11.362 10.3761 11.8106 11.1756C11.8371 11.2207 11.8442 11.2487 11.8442 11.2487L11.8505 11.3281L11.8726 11.3412C11.962 11.5542 12.0726 11.819 12.0659 11.9988C12.0639 12.0941 12.0655 12.1763 12.0667 12.2533C12.0679 12.3209 12.0702 12.4099 12.0651 12.4525C11.9892 12.5545 11.7055 12.911 11.513 13.1532C11.1881 13.5619 11.0676 13.7148 11.0178 13.7844C10.9743 13.831 10.8324 13.9654 10.7273 14.065C10.3649 14.4088 10.1191 14.6468 10.0108 14.808C10.0068 14.8143 9.48198 15.5961 9.67327 16.1893C9.8108 16.6153 10.2032 17.0109 10.8692 17.3915C10.8451 17.4816 10.8103 17.6045 10.7878 17.6468C10.5894 18.0191 10.5993 18.4558 10.8143 18.7586C10.7154 18.923 10.6234 19.1226 10.5977 19.3139C10.5558 19.6356 10.6234 19.9166 10.7988 20.1509C10.8763 20.2497 10.9731 20.4129 11.0043 20.4916C11.0004 20.5864 11.0123 20.671 11.0221 20.7422C11.0265 20.7714 11.032 20.8129 11.0336 20.8394C10.8146 21.1694 10.242 22.1495 10.6281 22.8483C11.0557 23.6256 11.4083 23.9975 12.4836 24.2845C13.4053 24.5259 15.3924 24.7947 16.0457 24.7947C16.0627 24.7947 16.0785 24.7947 16.0943 24.7943C16.0923 24.8168 16.0896 24.8397 16.0864 24.8631C16.0082 24.9042 15.9275 24.9461 15.8552 24.9777C15.5323 25.1235 15.2098 25.2191 14.8688 25.3203C14.3008 25.4887 13.7139 25.663 13.1223 26.0732C11.5138 27.1857 9.8519 28.6342 9.00496 29.3989C8.94331 29.4523 8.88007 29.5167 8.82039 29.5811Z" fill="#FC6EAC"/>
</svg>
