<svg width="177" height="31" viewBox="0 0 177 31" fill="none" xmlns="http://www.w3.org/2000/svg">
<path d="M2.25578 25.46V16.22C2.25578 12.74 2.13578 12.54 1.85578 12.26L0.295781 11.9C0.295781 11.62 0.295781 11.42 0.335781 11.3C0.335781 11.18 0.335781 11.1 0.375781 11.02C1.05578 10.82 1.73578 10.58 2.49578 10.38C3.77578 10.02 5.41578 9.66 7.13578 9.5L7.97578 9.62L7.89578 11.66C7.85578 12.82 7.81578 14.14 7.81578 15.22V25.46C7.81578 27.5 7.89578 28.02 8.17578 28.22L9.69578 28.54C9.69578 28.62 9.69578 28.7 9.73578 28.82C9.73578 28.98 9.77578 29.22 9.77578 29.5H0.295781C0.295781 29.14 0.295781 28.94 0.335781 28.82C0.335781 28.7 0.335781 28.62 0.375781 28.54L1.77578 28.22C2.05578 28.02 2.25578 27.74 2.25578 25.46ZM1.61578 4.74C1.61578 2.86 3.17578 1.74 4.97578 1.74C6.77578 1.74 8.33578 2.86 8.33578 4.74C8.33578 6.54 6.77578 7.66 4.97578 7.66C3.17578 7.66 1.61578 6.62 1.61578 4.74ZM112.125 13.4062L117.359 1.0625H124.762L115.602 19.2852V29.5H108.648V19.2852L99.5078 1.0625H106.871L112.125 13.4062ZM150.328 15.8672C150.328 18.6406 149.814 21.0951 148.785 23.2305C147.757 25.3659 146.292 27.013 144.391 28.1719C142.503 29.3177 140.348 29.8906 137.926 29.8906C135.504 29.8906 133.355 29.3372 131.48 28.2305C129.605 27.1107 128.141 25.5156 127.086 23.4453C126.044 21.375 125.497 18.9987 125.445 16.3164V14.7148C125.445 11.9284 125.953 9.47396 126.969 7.35156C127.997 5.21615 129.462 3.56901 131.363 2.41016C133.277 1.2513 135.452 0.671875 137.887 0.671875C140.296 0.671875 142.444 1.24479 144.332 2.39062C146.22 3.53646 147.685 5.17057 148.727 7.29297C149.781 9.40234 150.315 11.8242 150.328 14.5586V15.8672ZM143.355 14.6758C143.355 11.8503 142.88 9.70833 141.93 8.25C140.992 6.77865 139.645 6.04297 137.887 6.04297C134.449 6.04297 132.633 8.62109 132.438 13.7773L132.418 15.8672C132.418 18.6536 132.88 20.7956 133.805 22.293C134.729 23.7904 136.103 24.5391 137.926 24.5391C139.658 24.5391 140.992 23.8034 141.93 22.332C142.867 20.8607 143.342 18.7448 143.355 15.9844V14.6758ZM176.168 1.0625V19.6758C176.168 21.7852 175.719 23.6146 174.82 25.1641C173.922 26.7005 172.633 27.8724 170.953 28.6797C169.273 29.487 167.288 29.8906 164.996 29.8906C161.533 29.8906 158.805 28.9922 156.812 27.1953C154.82 25.3984 153.805 22.9375 153.766 19.8125V1.0625H160.66V19.9492C160.738 23.0612 162.184 24.6172 164.996 24.6172C166.415 24.6172 167.49 24.2266 168.219 23.4453C168.948 22.6641 169.312 21.3945 169.312 19.6367V1.0625H176.168Z" fill="#FC6EAC"/>
<path d="M32.0602 20.74C32.1802 20.74 32.3802 20.82 32.6602 20.86L33.1402 20.98C32.9802 22.78 32.7002 24.7 32.5002 26.14L32.1002 28.58C29.6602 29.58 27.0602 30.06 24.3802 30.06C17.1002 30.06 11.9402 24.98 11.9402 16.82C11.9402 8.34 17.8202 3.22 24.2602 3.22C27.3002 3.22 30.0602 3.58 32.1002 4.02L32.4202 4.38C32.4202 5.98 32.3402 7.82 32.2202 9.3C32.1402 10.18 32.0602 11.02 32.0202 11.82C31.8202 11.86 31.6602 11.86 31.5402 11.86C31.2602 11.9 31.0602 11.9 30.9402 11.9C30.5802 10.94 30.2602 10.02 29.9002 9.14C29.3002 7.66 28.5002 5.94 27.7402 5.1C27.2602 4.9 25.5402 4.5 24.1002 4.5C19.7802 4.5 18.0202 9.82 18.0202 15.54C18.0202 21.54 20.2202 28.66 25.1802 28.66C25.9402 28.66 26.9802 28.54 27.5802 28.34C28.4202 27.42 29.5402 25.62 30.4602 23.9C30.9802 22.9 31.5402 21.86 32.0602 20.74ZM43.132 28.22L44.652 28.54C44.652 28.62 44.652 28.7 44.692 28.82C44.692 28.98 44.732 29.22 44.732 29.5H35.292C35.292 29.14 35.292 28.94 35.332 28.82C35.332 28.7 35.332 28.62 35.372 28.54L36.732 28.22C37.092 27.98 37.212 27.7 37.212 25.46V8.1C37.212 4.74 37.092 4.34 36.772 4.02L35.292 3.62C35.292 3.34 35.292 3.14 35.332 3.02C35.332 2.9 35.332 2.82 35.372 2.78L37.372 2.18C38.612 1.86 40.172 1.54 41.892 1.38L42.972 1.46L42.852 3.9C42.812 5.34 42.772 7.22 42.772 8.94V25.46C42.772 27.5 42.852 28.02 43.132 28.22ZM46.7011 25.38C46.7011 21.5 50.9411 20.1 56.3011 18.58C56.7811 18.42 56.8611 18.06 56.8611 16.82V15.46C56.8611 13.02 56.1011 11.3 54.3411 11.3C53.5011 11.3 52.3411 11.5 51.9011 11.66C51.3811 12.74 52.0211 13.62 52.0211 14.82C51.4611 15.82 48.9011 16.74 47.9011 16.74C47.2211 16.74 46.8611 16.02 46.8611 15.42C46.8611 14.18 47.5011 13.3 48.8211 12.34C51.7011 10.42 54.7411 9.38 57.5811 9.38C60.5811 9.38 62.4611 11.42 62.4611 14.34C62.4611 17.42 62.2611 20.22 62.2611 23.26V24.1C62.2611 26.5 62.5411 26.98 63.1811 26.98C63.8611 26.98 64.7011 26.78 65.0211 26.66L65.3011 27.38C64.3411 28.78 62.3811 29.94 60.4211 29.94C58.2211 29.94 57.4611 29.02 56.8211 27.3C55.5011 28.74 53.4211 29.94 51.1811 29.94C48.7811 29.94 46.7011 27.78 46.7011 25.38ZM52.1811 23.18C52.1811 25.1 53.1811 26.94 54.4211 26.94C55.3411 26.94 56.3011 26.62 56.7411 26.26C56.8611 24.94 56.8611 22.18 56.8611 19.62L55.9411 19.74C55.3411 19.86 54.7011 19.94 54.0611 20.22C52.8211 20.66 52.1811 21.46 52.1811 23.18ZM74.0686 9.58L73.9086 12.34C75.6686 10.46 77.7486 9.38 79.7086 9.38C82.2686 9.38 83.6686 10.66 84.6686 12.58C86.8686 10.38 88.8686 9.38 91.2686 9.38C94.7486 9.38 97.0286 12.22 97.0286 16.82V25.46C97.0286 27.7 97.1486 27.98 97.3486 28.18L98.8286 28.54C98.8286 28.62 98.8286 28.7 98.8686 28.82C98.8686 28.98 98.9086 29.22 98.9086 29.5H89.4286C89.4286 29.14 89.4286 28.94 89.4686 28.82C89.4686 28.7 89.4686 28.62 89.5086 28.54L91.1086 28.18C91.3486 28.06 91.4686 27.7 91.4686 25.46V18.9C91.4686 14.3 90.0686 12.86 88.1486 12.86C87.0286 12.86 85.8686 13.26 85.0286 13.7L85.2686 14.78C85.3886 15.46 85.5086 16.46 85.5086 17.7V25.46C85.5086 27.74 85.5486 27.98 85.8286 28.18L87.3486 28.54C87.3486 28.62 87.3486 28.7 87.3886 28.82C87.3886 28.98 87.4286 29.22 87.4286 29.5H77.9086C77.9086 29.14 77.9086 28.94 77.9486 28.82C77.9486 28.7 77.9486 28.62 77.9886 28.54L79.5486 28.18C79.7886 28.06 79.9086 27.7 79.9086 25.46V18.82C79.9086 14.38 78.8686 12.86 76.9086 12.86C75.7886 12.86 74.5486 13.22 73.9086 13.58V25.46C73.9086 27.5 73.9886 28.02 74.2686 28.22L75.7886 28.54C75.7886 28.62 75.7886 28.7 75.8286 28.82C75.8286 28.98 75.8686 29.22 75.8686 29.5H66.4286C66.4286 29.3 66.4286 29.06 66.4686 28.86C66.4686 28.74 66.4686 28.66 66.5086 28.54L67.8686 28.22C68.1486 28.02 68.3486 27.74 68.3486 25.46V15.94C68.3486 12.9 68.1886 12.5 67.9486 12.26L66.5086 11.86C66.5086 11.58 66.5086 11.38 66.5486 11.26C66.5486 11.14 66.5486 11.06 66.5886 10.98C67.2686 10.78 67.9886 10.54 68.7486 10.34C70.0286 10.02 71.6686 9.62 73.2286 9.5L74.0686 9.58Z" fill="#523432"/>
</svg>
